<?xml version="1.0" encoding="utf-8"?>
<!-- Generator: Adobe Illustrator 26.0.0, SVG Export Plug-In . SVG Version: 6.00 Build 0)  -->
<svg version="1.1" id="Layer_1" xmlns="http://www.w3.org/2000/svg" xmlns:xlink="http://www.w3.org/1999/xlink" x="0px" y="0px"
	 viewBox="0 0 504 144" style="enable-background:new 0 0 504 144;" xml:space="preserve">
<style type="text/css">
	.st0{fill:none;stroke:#010101;stroke-width:4;stroke-miterlimit:10;}
	.st1{fill:#FFFFFF;stroke:#010101;stroke-width:4;stroke-miterlimit:10;}
	.st2{fill:#010101;stroke:#010101;stroke-width:4;stroke-miterlimit:10;}
</style>
<g>
	<g>
		<path class="st0" d="M139.87,57.58c-0.55-0.72-2.78-3.47-6.56-3.99c-3.21-0.44-5.61,0.99-7.49,2.11
			c-1.22,0.72-4.97,2.96-6.42,7.52c-0.51,1.61-1.31,3.18-0.55,4.33c1.11,1.68,4.61,1.32,5.67,1.21c0.29-0.03,1.29-0.15,2.55-0.57
			c2.16-0.74,3.51-1.86,3.52-1.84c0.03,0.04-5.33,3.48-10.54,7.76c-3.3,2.7-5.69,4.66-8.34,7.85c-3.8,4.58-4.23,5.19-8.81,11.27
			c-2.83,3.75-2.78,4.88-2.51,7.07c0.37,2.94,3.77,4.67,4.48,5.03c1.47,0.75,4.19,1.61,13.66-1.53c8.34-2.77,14.17-6.05,16.06-7.15
			c4.93-2.86,8.39-5.5,10.57-7.18c3.63-2.79,6.79-5.78,13.12-11.75c0.81-0.76,5.26-4.98,10.54-10.73c0.76-0.83,3.48-3.83,5.91-8.37
			c1.01-1.9,2.8-5.24,1.89-6.08c-0.68-0.63-2.67,0.33-5.11,1.86c-6.38,3.99-10.54,8.49-15.06,13.5c0,0-3.53,3.91-10.45,12.12
			c-1.24,1.47-4.64,5.58-6.74,11.34c-0.58,1.59-1.17,3.61-0.45,5.8c0.06,0.19,1.18,3.42,3.68,3.93c1.36,0.28,2.36-0.39,4.47-1.6
			c5.8-3.33,5.19-2.27,9.3-4.9c3.73-2.39,5.95-4.36,6.55-4.89c0,0,0.55-0.49,1.06-0.98c4.29-4.13,8.32-10.91,8.18-11
			c-0.18-0.12-8.6,10.81-6.83,12.7c0.74,0.79,3.03-0.23,4.08-0.7c5.39-2.4,8.03-7.63,8.28-7.47c0.28,0.18-4.05,6.59-3.15,7.39
			c0.76,0.68,5.41-2.57,10.79-6.35c2.64-1.85,4.69-3.39,6.07-2.64c0.92,0.5,1.31,1.91,1.36,2.84c0.06,1.24-0.46,2.18-0.79,2.78
			c-2.17,3.98-0.31,1.83-2.87,6.07c-3.24,5.36-7.4,10.77-7.95,11.47c-4.33,5.59-6.49,8.39-7.28,9.26
			c-6.52,7.17-14.42,12.64-15.12,11.91c-0.66-0.69,5.05-7.11,6.86-9.15c2.2-2.47,5.15-5.77,9.47-9.38
			c10.62-8.89,20.5-12.2,23.74-17.35c0.18-0.29,1.43-2.31,3.53-4.4c1.23-1.22,2.29-2.01,3.26-2.6c0.73-0.44,1.34-0.73,2.15-1.11
			c0.72-0.34,1.9-0.89,3.5-1.42c1.45-0.48,2.18-0.71,3.16-0.78c1.27-0.08,2.53-0.16,3.36,0.59c1.3,1.18,0.97,3.85,0.42,5.4
			c-0.55,1.54-1.35,2.09-1.37,3.64c0,0.48-0.02,1.5,0.54,2.08c1.32,1.39,5.18-0.3,6.91-1.08c6.28-2.82,6.71-5.55,11.7-6.94
			c2.87-0.8,3.2-0.03,5.52-0.99c2.65-1.09,4.22-3.18,7.26-7.3c7.03-9.56,8.57-11.71,10.41-15.67c0.36-0.77,2.43-5.21,1.95-5.48
			c-0.4-0.23-2.34,2.62-6.25,8.1c-2.88,4.04-6.93,9.64-14.88,21.57c-1.07,1.6-2.76,4.16-2.45,4.41c0.49,0.4,6.73-4.11,11.28-9.59
			c0.57-0.69,2.02-2.47,4.37-3c0.33-0.07,2.72-0.61,3.8,0.61c1.31,1.48-0.18,4.59-0.91,6.1c-0.75,1.57-2.33,4.86-6.11,6.56
			c-2.32,1.04-6.72,2.06-8.11,0.24c-2.18-2.86,3.81-11.84,6.16-11.23c0.58,0.15,0.59,0.81,1.28,1.66c1.17,1.45,3.23,2.15,8.65,2.04
			c7.04-0.13,11.61-0.22,13.13-3.12c0.56-1.07,0.72-2.54,0.26-2.82c-0.89-0.54-4.35,3.15-6.05,7.34c-0.57,1.4-1.04,2.59-0.48,3.35
			c1.06,1.46,5.05,0.18,6.38-0.25c6.7-2.15,10.92-6.54,11.1-6.72c12.61-13.12,24.28-23.54,24.04-23.75
			c-0.34-0.31-21.08,23.65-23.95,25.49c-0.16,0.1-0.98,0.59-1.37,1.55c-0.29,0.72-0.33,1.67-0.01,2.18
			c0.99,1.58,6.01,0.08,6.82-0.16c10.85-3.23,34.24-24.94,33.62-25.51c-0.57-0.53-16.54,18.49-18.31,20.6
			c-5.88,7.01,1.77,0.12,2.67-0.12c3.98-1.05,7.82-4.93,8.55-4.5c0.45,0.26-0.84,2.35-1.34,3.05c-1.91,2.67-3.91,3.34-4.44,5.73
			c-0.19,0.87-0.28,2.37,0.27,3.05c1.17,1.44,6.27,0.49,22.33-8.7"/>
		<line class="st0" x1="275.88" y1="61.62" x2="310.04" y2="57.87"/>
		<path class="st1" d="M182.42,64.98c-0.16-0.38,0.1-1.03,0.32-0.92c0.1,0.05,0.71-0.02,1,0.43c0,0-0.01,0.84-0.01,0.84
			C183.52,65.82,182.64,65.53,182.42,64.98z"/>
		<path class="st0" d="M204.12,82.92c-0.52,0.5-1.6,1.69-2.1,3.57c-0.27,1.02-0.69,3.48,0.15,4.32c1.03,1.04,4.63,0.29,15.77-7.36"
			/>
	</g>
	<g>
		<path class="st0" d="M328.03,44.02c1.16-2.18,2.99-5.14,5.76-8.22c4.73-5.25,9.59-7.92,12.46-9.47c2.13-1.15,7.06-3.6,13.87-5.05
			c3.72-0.79,8.64-1.79,15.02-0.95c1.04,0.14,5.43,0.76,10.71,3.06c4.71,2.05,7.78,3.38,10.16,6.76c0.76,1.08,3.27,4.94,2.74,9.97
			c-0.4,3.88-2.4,6.42-5,9.71c-0.73,0.92-3.36,4.16-8.01,7.48c-1.42,1.01-7.65,5.35-17.2,7.41c-5.07,1.09-7.65,1.61-10.07,0.15
			c-4.4-2.66-4.45-9.32-4.44-10.38"/>
		<path class="st0" d="M370.71,34.1c-5.82,17.22-11.64,34.44-17.46,51.66"/>
		<path class="st0" d="M393.55,64.92c-2.5,1.14-9.28,1.22-12.69,4.4c-3.61,3.37-8.61,9.5-7.15,11.57c0.97,1.38,4.46,0.46,5.74,0.12
			c1.65-0.44,4.75-1.58,8.15-5.46c4.29-4.9,5.88-10.52,5.92-10.51c0.06,0.02-5.47,10.46-2.92,12.73c0.83,0.74,2.48,0.34,5.78-0.45
			c3.4-0.82,5.16-1.24,5.94-2.74c0.54-1.03,0.18-1.74,1.12-4.79c0.15-0.49,0.36-1.12,0.48-1.42c1.59-3.98,20.59-6.56,10.42-5.01
			c-0.08,0.01-2.12,0.38-5.32,2.1c-1.64,0.88-2.6,1.4-3.52,2.37c-2.12,2.23-3.39,6.18-2.07,7.47c1.36,1.33,5.32-0.25,7.83-2.17
			c4.53-3.47,5.61-8.99,5.81-8.92c0.41,0.15-3.64,11.23-3.64,11.23c-3.78,10.35-3.69,9.87-5.62,15.13
			c-4.44,12.07-5.69,16.65-9.19,17.32c-0.28,0.05-2.17,0.42-2.92-0.55c-2.56-3.3,10.73-18.93,21.33-28.06
			c3.09-2.66,5.95-5.6,9.22-8.05c5.2-3.9,9.31-6.02,8.9-8.36c-0.16-0.91-0.99-1.73-1.86-1.89c-3.24-0.63-7.31,7.7-7.98,13.14
			c-0.19,1.51-0.11,2.79,0.67,3.4c0.83,0.65,2.13,0.31,2.95,0.04c6.31-2.04,10-6.23,10-6.23c2.33-2.65,2.32-3.38,7.6-12.61
			c10.31-18.06,4.27-7.79,8.56-15.16c0.47-0.81,3.07-2.18,4.14-2c0.9,0.15,1.45,1.78,1.55,3c0.28,3.44-2.89,6.26-4.13,7.33
			c-3.16,2.73-4.34,1.86-7.51,4.04c-4.82,3.32-6.34,8.27-8.25,14.5c-0.66,2.14-0.87,3.48-0.21,4.08c0.32,0.29,1.46,0.96,5.98-1.66
			c11.5-6.68,19.28-19.8,20.54-19.09c0.42,0.24-0.35,1.79-1.57,6.31c-2.08,7.67-1.67,9.92-3.96,11.68c-1.97,1.52-4.95,1.9-5.76,0.88
			c-0.98-1.23,1.23-4.43,2.54-6.32c3.13-4.53,7.66-8.21,8.4-7.59c0.19,0.16,0.04,0.54-0.08,1.2c-0.28,1.42-0.32,3.5,0.76,6.31"/>
	</g>
</g>
<line class="st2" x1="51.63" y1="84.99" x2="90.59" y2="84.99"/>
</svg>
